# xmcd
#
# Track frame offsets: 
#        150
#        15503
#        30591
#        45957
#        64305
#        76537
#        91722
#        106085
#        118303
#        130674
#        152059
#        172915
#        187069
#        227304
#
# Disc length: 3206 seconds
#
# Revision: 0
# Processed by: cddbd v1.5.2PL0 Copyright (c) Steve Scherf et al.
# Submitted via: ExactAudioCopy v1.0b3
#
DISCID=960c840e
DTITLE=Duo Diesel - Duo Diesel Live
DYEAR=1900
DGENRE=
TTITLE0=Let Your Love Flow
TTITLE1=Livin Next Door To Alice
TTITLE2=Ich möcht so gerne mal nach Nashville
TTITLE3=I Need More Of You
TTITLE4=On The Road Again
TTITLE5=Willenlos
TTITLE6=Hang on Sloopy
TTITLE7=Rote Lippen soll man küssen
TTITLE8=Don't Be Cruel
TTITLE9=Ich möcht so gern Dave Dudley hörn
TTITLE10=Jambalaya
TTITLE11=Ruby Don't Take Your Love To Town
TTITLE12=Orange Blossom Special
TTITLE13=Some Broken Hearts
EXTD=
EXTT0=
EXTT1=
EXTT2=
EXTT3=
EXTT4=
EXTT5=
EXTT6=
EXTT7=
EXTT8=
EXTT9=
EXTT10=
EXTT11=
EXTT12=
EXTT13=
PLAYORDER=
